<svg width="68" height="69" viewBox="0 0 68 69" fill="none" xmlns="http://www.w3.org/2000/svg">
<rect y="0.917969" width="68" height="68" rx="34" fill="#FFE0E4"/>
<path fill-rule="evenodd" clip-rule="evenodd" d="M48.9197 25.8826L45.6303 20.2308C45.5466 20.0905 45.4113 19.9879 45.248 19.9424C45.085 19.8966 44.9096 19.9157 44.7623 19.9952L35.2689 25.0442C34.9622 25.2073 34.8505 25.5715 35.0182 25.8636L35.8422 27.3213C36.1012 27.7768 35.9259 28.354 35.4519 28.6083L33.4892 29.6597C33.0472 29.899 32.4855 29.781 32.1868 29.39L31.1471 28.0275C30.9521 27.7732 30.5901 27.701 30.3071 27.8604C29.9765 28.0462 27.0498 29.6974 26.5681 30.0163C25.2421 30.8932 24.1904 31.7738 23.3507 32.7075C23.1234 32.9658 23.1557 33.3491 23.4221 33.5654C23.6931 33.7816 24.0914 33.7512 24.3224 33.4968C25.0867 32.6427 26.0624 31.8302 27.2968 31.0141C27.6154 30.8053 29.3875 29.7957 30.4625 29.1885L31.1591 30.1035C31.8401 30.9914 33.1102 31.2574 34.1178 30.7184L36.0812 29.667C37.1565 29.0902 37.5549 27.7765 36.9692 26.7402L36.4435 25.8105L44.826 21.3584L47.5537 26.0464L39.1716 32.9548C38.9126 33.171 38.8769 33.5393 39.0879 33.7936C40.4576 35.4368 41.1826 37.4149 41.1826 39.5099C41.1826 44.5813 36.8542 48.7075 31.5341 48.7075C26.2141 48.7075 21.8854 44.5813 21.8854 39.5099C21.8854 38.8573 21.957 38.2196 22.1047 37.5553C22.1804 37.2251 21.957 36.9023 21.6147 36.8341C21.2724 36.7656 20.9297 36.9708 20.858 37.3006C20.6907 38.0485 20.611 38.7697 20.611 39.5059C20.611 40.7872 20.8547 42.0147 21.301 43.1493C21.2887 43.1489 21.2757 43.1489 21.2634 43.1489C20.0157 43.1489 19 44.1154 19 45.3028C19 46.4902 20.0157 47.4567 21.2634 47.4567C22.1314 47.4567 22.8877 46.9888 23.267 46.3037C25.2717 48.516 28.2351 49.918 31.5341 49.918H31.5378C37.5629 49.918 42.4609 45.2453 42.4609 39.5059C42.4609 37.3273 41.7679 35.262 40.4579 33.5012L48.7807 26.6383C49.007 26.4484 49.0667 26.1333 48.9197 25.8826ZM21.263 46.2579C20.708 46.2579 20.2593 45.8312 20.2593 45.3028C20.2593 44.7748 20.708 44.3473 21.263 44.3473C21.818 44.3473 22.267 44.7744 22.267 45.3028C22.267 45.8312 21.8184 46.2579 21.263 46.2579ZM22.2667 35.8412C21.909 35.8412 21.6084 35.5641 21.6084 35.2259C21.6084 34.8874 21.8927 34.6107 22.2504 34.6107H22.2627C22.6204 34.6107 22.9127 34.8877 22.9127 35.2259C22.9127 35.5645 22.62 35.8412 22.2627 35.8412H22.2667ZM32.8038 44.222C32.3742 44.222 31.9568 44.1051 31.5948 43.8862C31.5151 43.837 31.4238 43.837 31.3441 43.8862C30.8828 44.1692 30.3261 44.2788 29.7771 44.1956C28.7988 44.0486 28.0351 43.2933 27.9158 42.3572C27.8084 41.489 28.2538 40.6586 29.0571 40.2395C29.1845 40.1716 29.2281 40.0206 29.2281 39.8996C29.2281 39.258 29.5185 38.6651 30.0275 38.2611C30.5365 37.857 31.2048 37.6873 31.8688 37.7969C32.6562 37.9289 33.3125 38.4612 33.5788 39.1861C33.6665 39.42 33.7062 39.6617 33.7062 39.9033C33.7062 40.0243 33.7458 40.1713 33.8652 40.2355C34.6765 40.6545 35.1299 41.485 35.0185 42.3609C34.8992 43.297 34.1355 44.0523 33.1572 44.1993C33.0378 44.218 32.9185 44.2257 32.7992 44.2257L32.8038 44.222ZM31.4715 39.0541C31.2648 39.0541 31.0698 39.1219 30.9068 39.2503C30.7081 39.4087 30.5925 39.6429 30.5925 39.8882C30.5965 40.5185 30.2625 41.085 29.7175 41.3717C29.4035 41.5378 29.2245 41.8626 29.2681 42.2062C29.3118 42.5648 29.6181 42.8669 29.9921 42.9234C30.2705 42.9648 30.4811 42.8819 30.6045 42.8027C31.1375 42.4742 31.7975 42.4742 32.3305 42.8027C32.4578 42.8819 32.6645 42.9651 32.9428 42.9234C33.3168 42.8669 33.6228 42.5648 33.6668 42.2062C33.7105 41.8626 33.5315 41.5341 33.2135 41.368C32.6725 41.0887 32.3385 40.5225 32.3425 39.8919C32.3425 39.8014 32.3265 39.7031 32.2908 39.6089C32.1875 39.3295 31.9288 39.1179 31.6305 39.0691C31.5748 39.0615 31.4635 39.0541 31.4635 39.0541H31.4715ZM28.7441 38.7259C28.7441 39.1721 28.3661 39.5337 27.9001 39.5337C27.4341 39.5337 27.0561 39.1721 27.0561 38.7259C27.0561 38.2798 27.4341 37.9182 27.9001 37.9182C28.3661 37.9182 28.7441 38.2798 28.7441 38.7259ZM35.9565 38.7259C35.9565 39.1721 35.5615 39.5337 35.0742 39.5337C34.5868 39.5337 34.1918 39.1721 34.1918 38.7259C34.1918 38.2798 34.5868 37.9182 35.0742 37.9182C35.5612 37.9182 35.9565 38.2798 35.9565 38.7259ZM30.7388 36.6489C30.7388 37.0951 30.3608 37.4567 29.8948 37.4567C29.4288 37.4567 29.0508 37.0951 29.0508 36.6489C29.0508 36.2028 29.4288 35.8412 29.8948 35.8412C30.3611 35.8412 30.7388 36.2028 30.7388 36.6489ZM33.8848 36.6489C33.8848 37.0951 33.5068 37.4567 33.0408 37.4567C32.5748 37.4567 32.1968 37.0951 32.1968 36.6489C32.1968 36.2028 32.5748 35.8412 33.0408 35.8412C33.5068 35.8412 33.8848 36.2028 33.8848 36.6489Z" fill="#FF405B"/>
</svg>
